<svg width="250" height="250" viewBox="0 0 250 250" fill="none" xmlns="http://www.w3.org/2000/svg" xmlns:xlink="http://www.w3.org/1999/xlink">
<path d="M125,250C194.036,250 250,194.036 250,125C250,55.964 194.036,0 125,0C55.964,0 0,55.964 0,125C0,194.036 55.964,250 125,250Z" fill="#37474F"/>
<path d="M194.166,229.167C174.583,242.083 151.458,249.792 126.25,250L121.25,250C96.666,249.375 73.75,241.458 54.583,228.333L85.833,197.5L159.375,197.5L194.166,229.167Z" fill="#424242"/>
<path d="M98.75,201.25L70,237.083C62.708,233.542 56.042,229.375 49.583,224.583L73.125,200.625L98.75,201.25Z" fill="#757575"/>
<path d="M202.292,223.125C195.833,228.333 188.75,232.708 181.25,236.458L152.292,200L179.167,199.375L202.292,223.125Z" fill="#757575"/>
<path d="M83.333,210.208C88.971,210.208 93.542,205.918 93.542,200.625C93.542,195.332 88.971,191.042 83.333,191.042C77.695,191.042 73.125,195.332 73.125,200.625C73.125,205.918 77.695,210.208 83.333,210.208Z" fill="#000000"/>
<path d="M168.333,210.208C173.971,210.208 178.542,205.918 178.542,200.625C178.542,195.332 173.971,191.042 168.333,191.042C162.695,191.042 158.125,195.332 158.125,200.625C158.125,205.918 162.695,210.208 168.333,210.208Z" fill="#000000"/>
<path d="M171.25,202.708L78.958,202.708C74.375,202.708 70.833,198.958 70.833,194.583C70.833,190.208 74.583,186.458 78.958,186.458L171.25,186.458C175.833,186.458 179.375,190.208 179.375,194.583C179.375,198.958 175.625,202.708 171.25,202.708Z" fill="#424242"/>
<path d="M182.083,194.375L67.917,194.375C58.333,194.375 50.417,187.083 50.417,178.125L50.417,71.25C50.417,34.792 78.75,32.917 125,32.917C173.542,32.917 199.583,35.208 199.583,71.458L199.583,178.333C199.583,187.083 191.875,194.375 182.083,194.375Z" fill="url(#pf_0_2605_286)"/>
<g opacity="0.1">
<path d="M125,38.958C177.917,38.958 193.333,43.125 193.333,71.25L193.333,178.125C193.333,183.542 188.333,188.125 182.083,188.125L67.917,188.125C61.667,188.125 56.667,183.542 56.667,178.125L56.667,71.25C56.667,41.875 76.458,38.958 125,38.958ZM125,32.708C78.75,32.708 50.417,34.792 50.417,71.25L50.417,178.125C50.417,187.083 58.333,194.375 67.917,194.375L182.292,194.375C191.875,194.375 199.792,187.083 199.792,178.125L199.792,71.25C199.583,35.208 173.542,32.708 125,32.708Z" fill="#424242"/>
</g>
<path d="M100.417,60.625C100.417,56.875 97.292,54.167 93.542,54.375C77.292,55.833 64.167,62.708 64.167,74.375L64.167,139.167C64.167,142.708 66.875,145.417 70.417,145.417L94.167,145.417C97.709,145.417 100.417,142.708 100.417,139.167L100.417,60.625Z" fill="#4FC3F7"/>
<path d="M149.792,60.625C149.792,56.875 152.917,54.167 156.667,54.375C172.917,55.833 186.042,62.708 186.042,74.375L186.042,139.167C186.042,142.708 183.333,145.417 179.792,145.417L156.042,145.417C152.5,145.417 149.792,142.708 149.792,139.167L149.792,60.625Z" fill="#4FC3F7"/>
<path d="M96.25,177.292L68.959,177.292C66.667,177.292 64.792,175.417 64.792,173.125L64.792,160.625C64.792,158.333 66.667,156.458 68.959,156.458L96.459,156.458C98.75,156.458 100.625,158.333 100.625,160.625L100.625,173.125C100.417,175.417 98.542,177.292 96.25,177.292Z" fill="#212121"/>
<path d="M181.042,177.292L153.958,177.292C151.667,177.292 149.792,175.417 149.792,173.125L149.792,160.625C149.792,158.333 151.667,156.458 153.958,156.458L181.042,156.458C183.333,156.458 185.208,158.333 185.208,160.625L185.208,173.125C185.208,175.417 183.125,177.292 181.042,177.292Z" fill="#212121"/>
<path d="M134.167,50.208L115.833,50.208C113.542,50.208 111.667,48.333 111.667,46.042L111.667,45.417C111.667,43.125 113.542,41.25 115.833,41.25L134.167,41.25C136.458,41.25 138.333,43.125 138.333,45.417L138.333,46.042C138.333,48.333 136.458,50.208 134.167,50.208Z" fill="#FDD835"/>
<path d="M133.75,145.208L116.667,145.208C113.125,145.208 110.417,142.5 110.417,138.958L110.417,71.875C110.417,68.333 113.125,65.625 116.667,65.625L133.75,65.625C137.292,65.625 140,68.333 140,71.875L140,138.958C140,142.5 137.292,145.208 133.75,145.208Z" fill="#4FC3F7"/>
<path d="M90.208,172.916C93.315,172.916 95.833,170.398 95.833,167.292C95.833,164.185 93.315,161.667 90.208,161.667C87.102,161.667 84.583,164.185 84.583,167.292C84.583,170.398 87.102,172.916 90.208,172.916Z" fill="#FDD835"/>
<path d="M73.542,172.916C76.649,172.916 79.167,170.398 79.167,167.292C79.167,164.185 76.649,161.667 73.542,161.667C70.435,161.667 67.917,164.185 67.917,167.292C67.917,170.398 70.435,172.916 73.542,172.916Z" fill="#F44336"/>
<path d="M175.625,172.916C178.732,172.916 181.25,170.398 181.25,167.292C181.25,164.185 178.732,161.667 175.625,161.667C172.519,161.667 170,164.185 170,167.292C170,170.398 172.519,172.916 175.625,172.916Z" fill="#F44336"/>
<path d="M158.958,172.916C162.065,172.916 164.583,170.398 164.583,167.292C164.583,164.185 162.065,161.667 158.958,161.667C155.852,161.667 153.333,164.185 153.333,167.292C153.333,170.398 155.852,172.916 158.958,172.916Z" fill="#FDD835"/>
<g opacity="0.2">
<path d="M125,8.333C189.375,8.333 241.666,60.625 241.666,125C241.666,189.375 189.375,241.666 125,241.666C60.625,241.666 8.333,189.375 8.333,125C8.333,60.625 60.625,8.333 125,8.333ZM125,0C56.042,0 0,56.042 0,125C0,193.958 56.042,250 125,250C193.958,250 250,193.958 250,125C250,56.042 193.958,0 125,0Z" fill="#EEEEEE"/>
</g>
<g opacity="0.2">
<path d="M94.167,58.542C95.417,58.542 96.25,59.583 96.25,60.625L96.25,139.167C96.25,140.417 95.209,141.25 94.167,141.25L70.625,141.25C69.584,141.25 68.542,140.417 68.542,139.167L68.542,74.167C68.542,64.167 82.292,59.375 94.167,58.333L94.167,58.542ZM94.167,54.375C93.959,54.375 93.75,54.375 93.542,54.375C77.292,55.833 64.167,62.708 64.167,74.375L64.167,139.167C64.167,142.708 66.875,145.417 70.417,145.417L94.167,145.417C97.709,145.417 100.417,142.708 100.417,139.167L100.417,60.625C100.417,57.083 97.709,54.375 94.167,54.375Z" fill="#424242"/>
</g>
<g opacity="0.2">
<path d="M156.042,58.542C168.125,59.583 181.875,64.375 181.875,74.375L181.875,139.167C181.875,140.417 181.042,141.25 179.792,141.25L156.042,141.25C154.792,141.25 153.959,140.417 153.959,139.167L153.959,60.625C153.959,59.375 154.792,58.542 156.042,58.542ZM156.042,54.375C152.709,54.375 149.792,57.083 149.792,60.625L149.792,139.167C149.792,142.708 152.5,145.417 156.042,145.417L179.792,145.417C183.334,145.417 186.042,142.708 186.042,139.167L186.042,74.167C186.042,62.5 173.125,55.625 156.667,54.167C156.459,54.375 156.25,54.375 156.042,54.375Z" fill="#424242"/>
</g>
<g opacity="0.2">
<path d="M133.75,69.792C135,69.792 135.833,70.833 135.833,71.875L135.833,138.958C135.833,140.208 135,141.042 133.75,141.042L116.667,141.042C115.625,141.042 114.583,140.208 114.583,138.958L114.583,71.875C114.583,70.833 115.625,69.792 116.667,69.792L133.75,69.792ZM133.75,65.625L116.667,65.625C113.125,65.625 110.417,68.333 110.417,71.875L110.417,138.958C110.417,142.5 113.125,145.208 116.667,145.208L133.75,145.208C137.292,145.208 140,142.5 140,138.958L140,71.875C140,68.333 137.292,65.625 133.75,65.625Z" fill="#424242"/>
</g>
<defs>
<linearGradient id="pf_0_2605_286" x1="125" y1="34.206" x2="125" y2="186.742" gradientUnits="userSpaceOnUse">
<stop offset="0.108" stop-color="#F5F5F5"/>
<stop offset="0.632" stop-color="#E8E8E8"/>
<stop offset="0.868" stop-color="#E0E0E0"/>
</linearGradient>
</defs>
</svg>
